
<svg width="1402px" height="1402px" viewBox="1077 -1047 1402 1402" version="1.1" xmlns="http://www.w3.org/2000/svg" xmlns:xlink="http://www.w3.org/1999/xlink">
    <!-- Generator: Sketch 42 (36781) - http://www.bohemiancoding.com/sketch -->
    <desc>Created with Sketch.</desc>
    <defs></defs>
    <g id="Planet1" stroke="none" fill="none" transform="translate(1077.000000, -1046.000000)" fill-rule="evenodd">
        <circle id="Oval" stroke="#979797" stroke-width="1" fill="#8C4416" cx="701" cy="700" r="700"></circle>
        <ellipse id="Oval-2" fill="#000000" opacity="0.202013144" style="mix-blend-mode: darken;" cx="1011" cy="499.5" rx="30" ry="30.5"></ellipse>
        <path d="M1041,380 C1186.37145,385.272284 1349.45502,742.521069 1401,700 C1401,313.400675 1087.59932,0 701,0 C684.596156,19.3874649 517.419765,229.711591 621,360 C724.580235,490.288409 895.628554,374.727716 1041,380 Z" id="Oval" fill="#9E5318"></path>
        <path d="M681,1400 C653.762289,1391.66068 659.076011,1079.60352 381,983.471402 C187.918584,916.722293 313.742786,578.461795 221,560 C146.321032,545.13407 107.563698,454.762929 53.5411206,433.444585 C-154.958271,977.162719 294.400675,1400 681,1400 Z" id="Oval" fill="#713911"></path>
        <ellipse id="Oval-2" fill="#000000" opacity="0.202013144" style="mix-blend-mode: darken;" cx="351" cy="884.5" rx="30" ry="25.5"></ellipse>
        <ellipse id="Oval-2" fill="#000000" opacity="0.202013144" style="mix-blend-mode: darken;" cx="421" cy="569.5" rx="30" ry="30.5"></ellipse>
        <ellipse id="Oval-2" fill="#000000" opacity="0.202013144" style="mix-blend-mode: darken;" cx="476" cy="524.5" rx="15" ry="15.5"></ellipse>
        <ellipse id="Oval-2" fill="#000000" opacity="0.202013144" style="mix-blend-mode: darken;" cx="1281" cy="459.5" rx="30" ry="30.5"></ellipse>
        <ellipse id="Oval-2" fill="#000000" opacity="0.202013144" style="mix-blend-mode: darken;" cx="1076" cy="214.5" rx="65" ry="65.5"></ellipse>
        <ellipse id="Oval-2" fill="#000000" opacity="0.202013144" style="mix-blend-mode: darken;" cx="931" cy="129.5" rx="30" ry="30.5"></ellipse>
        <ellipse id="Oval-2" fill="#000000" opacity="0.202013144" style="mix-blend-mode: darken;" cx="1011" cy="499.5" rx="30" ry="30.5"></ellipse>
        <ellipse id="Oval-2" fill="#000000" opacity="0.202013144" style="mix-blend-mode: darken;" cx="936" cy="515.5" rx="15" ry="15.5"></ellipse>
        <ellipse id="Oval-2" fill="#000000" opacity="0.202013144" style="mix-blend-mode: darken;" cx="496" cy="895.5" rx="15" ry="15.5"></ellipse>
        <ellipse id="Oval-2" fill="#000000" opacity="0.202013144" style="mix-blend-mode: darken;" cx="61" cy="635.5" rx="15" ry="15.5"></ellipse>
        <ellipse id="Oval-2" fill="#000000" opacity="0.202013144" style="mix-blend-mode: darken;" cx="481" cy="84.5" rx="15" ry="15.5"></ellipse>
        <ellipse id="Oval-2" fill="#000000" opacity="0.202013144" style="mix-blend-mode: darken;" cx="1141" cy="244.5" rx="15" ry="15.5"></ellipse>
        <ellipse id="Oval-2" fill="#000000" opacity="0.202013144" style="mix-blend-mode: darken;" cx="176" cy="844.5" rx="15" ry="15.5"></ellipse>
        <ellipse id="Oval-2" fill="#000000" opacity="0.202013144" style="mix-blend-mode: darken;" cx="266" cy="371" rx="65" ry="67"></ellipse>
        <ellipse id="Oval-2" fill="#000000" opacity="0.202013144" style="mix-blend-mode: darken;" cx="681" cy="679.5" rx="40" ry="40.5"></ellipse>
        <ellipse id="Oval-2" fill="#000000" opacity="0.202013144" style="mix-blend-mode: darken;" cx="1066" cy="944" rx="65" ry="67"></ellipse>
        <ellipse id="Oval-2" fill="#000000" opacity="0.202013144" style="mix-blend-mode: darken;" cx="481" cy="275.5" rx="15" ry="15.5"></ellipse>
        <ellipse id="Oval-2" fill="#000000" opacity="0.202013144" style="mix-blend-mode: darken;" cx="811" cy="289.5" rx="30" ry="30.5"></ellipse>
        <ellipse id="Oval-2" fill="#000000" opacity="0.202013144" style="mix-blend-mode: darken;" cx="171" cy="630.5" rx="30" ry="30.5"></ellipse>
        <ellipse id="Oval-2" fill="#000000" opacity="0.202013144" style="mix-blend-mode: darken;" cx="721" cy="859.5" rx="40" ry="40.5"></ellipse>
        <ellipse id="Oval-2" fill="#000000" opacity="0.202013144" style="mix-blend-mode: darken;" cx="1266" cy="834.5" rx="15" ry="15.5"></ellipse>
        <ellipse id="Oval-2" fill="#000000" opacity="0.202013144" style="mix-blend-mode: darken;" cx="801" cy="1259.5" rx="40" ry="40.5"></ellipse>
        <ellipse id="Oval-2" fill="#000000" opacity="0.202013144" style="mix-blend-mode: darken;" cx="976" cy="1125.5" rx="25" ry="25.5"></ellipse>
        <ellipse id="Oval-2" fill="#000000" opacity="0.202013144" style="mix-blend-mode: darken;" cx="586" cy="1265.5" rx="15" ry="15.5"></ellipse>
        <ellipse id="Oval-2" fill="#000000" opacity="0.202013144" style="mix-blend-mode: darken;" cx="511" cy="1160.5" rx="30" ry="30.5"></ellipse>
        <ellipse id="Oval-2" fill="#000000" opacity="0.202013144" style="mix-blend-mode: darken;" cx="251" cy="1110.5" rx="50" ry="50.5"></ellipse>
        <ellipse id="Oval-2" fill="#000000" opacity="0.202013144" style="mix-blend-mode: darken;" cx="1086" cy="700" rx="25" ry="20"></ellipse>
        <ellipse id="Oval-2" fill="#000000" opacity="0.202013144" style="mix-blend-mode: darken;" cx="1086" cy="700" rx="25" ry="20"></ellipse>
    </g>
</svg>