<?xml version="1.0" encoding="UTF-8"?>
<svg viewBox="0 0 500 500" version="1.1" xmlns="http://www.w3.org/2000/svg" xmlns:xlink="http://www.w3.org/1999/xlink">
    <!-- Generator: Sketch 42 (36781) - http://www.bohemiancoding.com/sketch -->
    <title>navigation</title>
    <desc>Created with Sketch.</desc>
    <defs>
        <rect id="path-1" x="0" y="2" width="60" height="66"></rect>
        <mask id="mask-2" maskContentUnits="userSpaceOnUse" maskUnits="objectBoundingBox" x="0" y="0" width="60" height="66" fill="white">
            <use xlink:href="#path-1"></use>
        </mask>
        <rect id="path-3" x="0" y="2" width="60" height="66"></rect>
        <mask id="mask-4" maskContentUnits="userSpaceOnUse" maskUnits="objectBoundingBox" x="0" y="0" width="60" height="66" fill="white">
            <use xlink:href="#path-3"></use>
        </mask>
        <rect id="path-5" x="0" y="2" width="60" height="66"></rect>
        <mask id="mask-6" maskContentUnits="userSpaceOnUse" maskUnits="objectBoundingBox" x="0" y="0" width="60" height="66" fill="white">
            <use xlink:href="#path-5"></use>
        </mask>
        <polygon id="path-7" points="30.0033646 30 30.0033646 10 34 10 34 34 10 34 10 30"></polygon>
        <mask id="mask-8" maskContentUnits="userSpaceOnUse" maskUnits="objectBoundingBox" x="0" y="0" width="24" height="24" fill="white">
            <use xlink:href="#path-7"></use>
        </mask>
    </defs>
    <g id="Page-1" stroke="none" stroke-width="1" fill="none" fill-rule="evenodd">
        <g id="navigation">
            <polygon id="nav-background" fill="#FEEDB3" points="0 500 0 5.1159077e-13 500 5.1159077e-13"></polygon>
            <g id="nav-home" transform="translate(304.000000, 127.000000)">
                <g id="nav-hydrogen">
                    <use id="nh-background" stroke="#646DAF" mask="url(#mask-2)" fill="#A0ADD6" xlink:href="#path-1"></use>
                    <text id="nh-atomic-numb" font-family="Quicksand-Light, Quicksand" font-size="16" font-weight="300" fill="#000000">
                        <tspan x="50" y="16">1</tspan>
                    </text>
                    <path d="M26.7,23.34 C26.9266678,23.5666678 27.04,23.8666648 27.04,24.24 L27.04,49.76 C27.0133332,50.1333352 26.8800012,50.4333322 26.64,50.66 C26.3999988,50.8866678 26.1066684,51 25.76,51 C25.4133316,51 25.1200012,50.8800012 24.88,50.64 C24.6399988,50.3999988 24.52,50.1066684 24.52,49.76 L24.52,37.84 L8.28,37.84 L8.28,49.76 C8.2533332,50.1066684 8.1200012,50.3999988 7.88,50.64 C7.6399988,50.8800012 7.3466684,51 7,51 C6.6266648,51 6.3266678,50.8866678 6.1,50.66 C5.8733322,50.4333322 5.76,50.1333352 5.76,49.76 L5.76,24.24 C5.76,23.8666648 5.8799988,23.5666678 6.12,23.34 C6.3600012,23.1133322 6.6666648,23 7.04,23 C7.3866684,23 7.6799988,23.1199988 7.92,23.36 C8.1600012,23.6000012 8.28,23.8933316 8.28,24.24 L8.28,35.52 L24.52,35.52 L24.52,24.24 C24.52,23.8933316 24.6466654,23.6000012 24.9,23.36 C25.1533346,23.1199988 25.4533316,23 25.8,23 C26.1733352,23 26.4733322,23.1133322 26.7,23.34 Z" id="nh-chem-symbol" fill="#000000"></path>
                    <text id="nh-name" font-family="Quicksand-Light, Quicksand" font-size="7" font-weight="300" fill="#000000">
                        <tspan x="2" y="59">Hydrogen</tspan>
                    </text>
                    <text id="nh-atomic-mass" font-family="Quicksand-Light, Quicksand" font-size="9" font-weight="300" fill="#000000">
                        <tspan x="2" y="10">1.00794</tspan>
                    </text>
                    <text id="nh-ionization-energy" font-family="Quicksand-Light, Quicksand" font-size="5" font-weight="300" fill="#000000">
                        <tspan x="3" y="17">1212.0</tspan>
                    </text>
                    <text id="nh-electron-conf" font-family="Quicksand-Light, Quicksand" font-size="5" font-weight="300" fill="#000000">
                        <tspan x="2" y="66">1s</tspan>
                        <tspan x="5.94" y="66" font-family="Helvetica" font-weight="normal">¹</tspan>
                    </text>
                    <text id="nh-oxidation-states" font-family="Quicksand-Medium, Quicksand" font-size="4" font-weight="400" fill="#000000">
                        <tspan x="55.312" y="21">+1</tspan>
                        <tspan x="56.02" y="26">-1</tspan>
                    </text>
                </g>
                <g id="nav-oxygen" transform="translate(61.000000, 0.000000)">
                    <use id="no-background" stroke="#646DAF" mask="url(#mask-4)" fill="#A3B0D7" xlink:href="#path-3"></use>
                    <text id="no-atomic-numb" font-family="Quicksand-Light, Quicksand" font-size="16" font-weight="300" fill="#000000">
                        <tspan x="50" y="16">8</tspan>
                    </text>
                    <path d="M31.371,44.154 C30.1809941,46.4500115 28.5220106,48.2349936 26.394,49.509 C24.2659894,50.7830064 21.8440136,51.42 19.128,51.42 C16.4119864,51.42 13.9900106,50.7830064 11.862,49.509 C9.73398936,48.2349936 8.07500595,46.4500115 6.885,44.154 C5.69499405,41.8579885 5.1,39.2400147 5.1,36.3 C5.1,33.3599853 5.69499405,30.7420115 6.885,28.446 C8.07500595,26.1499885 9.73398936,24.3650064 11.862,23.091 C13.9900106,21.8169936 16.4119864,21.18 19.128,21.18 C21.8440136,21.18 24.2659894,21.8169936 26.394,23.091 C28.5220106,24.3650064 30.1809941,26.1499885 31.371,28.446 C32.561006,30.7420115 33.156,33.3599853 33.156,36.3 C33.156,39.2400147 32.561006,41.8579885 31.371,44.154 Z M29.838,29.286 C28.8019948,27.2419898 27.3530093,25.6600056 25.491,24.54 C23.6289907,23.4199944 21.5080119,22.86 19.128,22.86 C16.7479881,22.86 14.6270093,23.4199944 12.765,24.54 C10.9029907,25.6600056 9.45400518,27.2419898 8.418,29.286 C7.38199482,31.3300102 6.864,33.6679868 6.864,36.3 C6.864,38.9320132 7.38199482,41.2699898 8.418,43.314 C9.45400518,45.3580102 10.9029907,46.9399944 12.765,48.06 C14.6270093,49.1800056 16.7479881,49.74 19.128,49.74 C21.5080119,49.74 23.6289907,49.1800056 25.491,48.06 C27.3530093,46.9399944 28.8019948,45.3580102 29.838,43.314 C30.8740052,41.2699898 31.392,38.9320132 31.392,36.3 C31.392,33.6679868 30.8740052,31.3300102 29.838,29.286 Z" id="nh-chem-symbol" fill="#000000"></path>
                    <text id="no-name" font-family="Quicksand-Light, Quicksand" font-size="7" font-weight="300" fill="#000000">
                        <tspan x="2" y="59">Oxygen</tspan>
                    </text>
                    <text id="no-atomic-mass" font-family="Quicksand-Light, Quicksand" font-size="9" font-weight="300" fill="#000000">
                        <tspan x="2" y="10">15.9994</tspan>
                    </text>
                    <text id="no-ionization-energy" font-family="Quicksand-Light, Quicksand" font-size="5" font-weight="300" fill="#000000">
                        <tspan x="3" y="17">1313.9</tspan>
                    </text>
                    <text id="no-electron-conf" font-family="Quicksand-Light, Quicksand" font-size="5" font-weight="300" fill="#000000">
                        <tspan x="2" y="66">1s² 2s² 2p⁵</tspan>
                    </text>
                    <text id="no-oxidation-states" font-family="Quicksand-Light, Quicksand" font-size="4" font-weight="300" fill="#000000">
                        <tspan x="54.468" y="24">+2</tspan>
                        <tspan x="55.484" y="29">+1</tspan>
                        <tspan x="56.156" y="34">-1</tspan>
                        <tspan x="55.228" y="39" font-family="Quicksand-Medium, Quicksand" font-weight="400">-2</tspan>
                    </text>
                </g>
                <g id="nav-me" transform="translate(122.000000, 0.000000)">
                    <use id="nme-background" stroke="#F2757B" mask="url(#mask-6)" fill="#F7AC95" xlink:href="#path-5"></use>
                    <text id="nme-atomic-numb" font-family="Quicksand-Light, Quicksand" font-size="16" font-weight="300" fill="#000000">
                        <tspan x="50" y="16">3</tspan>
                    </text>
                    <path d="M29.408,21.873 C29.5480007,22.0270008 29.618,22.2159989 29.618,22.44 L29.618,50.16 C29.618,50.3840011 29.5270009,50.5799992 29.345,50.748 C29.1629991,50.9160008 28.9600011,51 28.736,51 C28.4839987,51 28.2740008,50.9160008 28.106,50.748 C27.9379992,50.5799992 27.854,50.3840011 27.854,50.16 L27.854,25.044 L17.018,41.424 C16.8779993,41.6480011 16.6820013,41.76 16.43,41.76 C16.1219985,41.76 15.8980007,41.6480011 15.758,41.424 L4.88,25.002 L4.88,50.16 C4.88,50.3840011 4.79600084,50.5799992 4.628,50.748 C4.45999916,50.9160008 4.26400112,51 4.04,51 C3.78799874,51 3.58500077,50.9160008 3.431,50.748 C3.27699923,50.5799992 3.2,50.3840011 3.2,50.16 L3.2,22.44 C3.2,22.243999 3.27699923,22.0550009 3.431,21.873 C3.58500077,21.6909991 3.77399888,21.6 3.998,21.6 C4.36200182,21.6 4.62799916,21.7259987 4.796,21.978 L16.43,39.282 L28.064,21.978 C28.2880011,21.6699985 28.5539985,21.5439997 28.862,21.6 C29.0860011,21.6280001 29.2679993,21.7189992 29.408,21.873 Z M52.498,46.191 C52.6380007,46.3450008 52.708,46.519999 52.708,46.716 C52.708,46.912001 52.6520006,47.0799993 52.54,47.22 C51.6159954,48.4520062 50.4680069,49.4599961 49.096,50.244 C47.7239932,51.0280039 46.2540079,51.42 44.686,51.42 C42.5859895,51.42 40.7240081,50.9720045 39.1,50.076 C37.4759919,49.1799955 36.2090046,47.9060083 35.299,46.254 C34.3889955,44.6019917 33.934,42.6840109 33.934,40.5 C33.934,38.2599888 34.3749956,36.2930085 35.257,34.599 C36.1390044,32.9049915 37.3079927,31.6100045 38.764,30.714 C40.2200073,29.8179955 41.7739918,29.37 43.426,29.37 C45.0780083,29.37 46.610993,29.7269964 48.025,30.441 C49.4390071,31.1550036 50.5939955,32.2259929 51.49,33.654 C52.3860045,35.0820071 52.8619997,36.8459895 52.918,38.946 C52.918,39.1700011 52.8340009,39.3729991 52.666,39.555 C52.4979992,39.7370009 52.3020011,39.828 52.078,39.828 L35.572,39.828 L35.572,40.374 C35.572,42.1100087 35.9219965,43.6989928 36.622,45.141 C37.3220035,46.5830072 38.3579932,47.7239958 39.73,48.564 C41.1020069,49.4040042 42.7539904,49.824 44.686,49.824 C46.0300067,49.824 47.2969941,49.4950033 48.487,48.837 C49.677006,48.1789967 50.6079967,47.346005 51.28,46.338 C51.476001,46.0859987 51.7139986,45.96 51.994,45.96 C52.190001,45.96 52.3579993,46.0369992 52.498,46.191 Z M40.255,31.869 C39.1769946,32.4150027 38.2250042,33.2269946 37.399,34.305 C36.5729959,35.3830054 36.0200014,36.6919923 35.74,38.232 L51.196,38.232 L51.196,37.854 C51.0559993,36.4259929 50.6010039,35.2010051 49.831,34.179 C49.0609962,33.1569949 48.1090057,32.3800027 46.975,31.848 C45.8409944,31.3159973 44.6580062,31.05 43.426,31.05 C42.3899948,31.05 41.3330054,31.3229973 40.255,31.869 Z" id="nme-chem-symbol" fill="#000000"></path>
                    <text id="nme-name" font-family="Quicksand-Light, Quicksand" font-size="7" font-weight="300" fill="#000000">
                        <tspan x="2" y="59">Sequoia</tspan>
                    </text>
                    <text id="nme-atomic-mass" font-family="Quicksand-Light, Quicksand" font-size="9" font-weight="300" fill="#000000">
                        <tspan x="2" y="11">4.8</tspan>
                        <tspan x="12.98" y="11" font-family="LucidaGrande, Lucida Grande" font-weight="normal">ⅹ</tspan>
                        <tspan x="18.4995313" y="11">10²⁸</tspan>
                    </text>
                    <text id="nme-ionization-energy" font-family="Quicksand-Light, Quicksand" font-size="5" font-weight="300" fill="#000000">
                        <tspan x="3" y="17">451</tspan>
                    </text>
                    <text id="nme-electron-conf" font-family="Quicksand-Light, Quicksand" font-size="5" font-weight="300" fill="#000000">
                        <tspan x="2" y="66">1s²</tspan>
                    </text>
                    <text id="nme-oxidation-states" font-family="Quicksand-Medium, Quicksand" font-size="4" font-weight="400" fill="#000000">
                        <tspan x="55.312" y="24">+1</tspan>
                    </text>
                </g>
            </g>
            <path d="M258.5,380.5 L260,382" id="Line" stroke="#979797" stroke-linecap="square"></path>
            <use id="nav-pull-down" stroke="#222121" mask="url(#mask-8)" stroke-width="1" xlink:href="#path-7"></use>
            <path d="M0,400 L400,0 L500,0 L0,500 L0,400 Z M375,125 L300,125 L300,200 L375,125 Z" id="nav-stripe-4" fill-opacity="0.8" fill="#E82549"></path>
            <path d="M177.071826,122.928174 L0,300 L0,400 L400,0 L300,0 L202.739874,97.2601257 C205.29471,100.426635 205.796311,104.553549 204.244696,109.640967 C202.535616,115.244678 199.816666,119.910914 196.087764,123.639816 C192.690319,127.03726 189.308463,129.041515 185.942093,129.652641 C182.575723,130.263767 180.136437,129.813198 178.62416,128.300921 C177.878379,127.55514 177.412273,126.560781 177.225828,125.317814 C177.136168,124.720079 177.084834,123.923535 177.071826,122.928174 Z" id="nav-stripe-3" fill-opacity="0.8" fill="#EF634D"></path>
            <path d="M202.739874,97.2601257 C202.480598,96.9387744 202.200176,96.6273143 201.898607,96.3257454 C198.687608,93.1147464 195.031267,92.5864932 190.929475,94.7409699 C188.422824,96.0460856 184.507536,99.3606155 179.183492,104.684659 C178.023389,105.844762 176.863304,106.797689 175.703201,107.54347 C173.94233,108.682856 172.730456,108.921088 172.06754,108.258172 C171.42534,107.615972 171.088708,106.295339 171.057634,104.296234 C171.026559,102.297128 171.311402,100.997211 171.912169,100.396443 C173.445163,99.2363402 174.470595,98.3973498 174.988498,97.8794468 C178.303078,94.5648672 179.949985,90.9396001 179.929269,87.0035368 C179.908553,83.0674735 178.717393,79.9186701 176.355756,77.5570322 C175.278517,76.4797938 173.963063,75.5165085 172.409354,74.6671475 C171.559993,74.2321089 170.513844,73.7660032 169.270877,73.2688162 L174.646684,67.8930093 L172.129688,65.376013 L171.756799,65.7489013 C171.363193,66.1425077 170.741719,66.7950557 169.892358,67.7065651 C169.042997,68.6180745 168.400806,69.2913384 167.965768,69.726377 C166.287762,71.4043829 164.179928,72.7975213 161.642203,73.9058338 C159.104478,75.0141464 157.079507,76.3244215 155.56723,77.8366984 C152.04549,81.3584393 150.40894,85.1701486 150.657534,89.2719409 C150.906127,93.3737332 152.242297,96.6364735 154.666084,99.0602599 C156.654831,101.049008 158.969823,102.317851 161.611129,102.866828 C164.252435,103.415806 166.826374,103.058458 169.333025,101.794774 C169.063715,106.207308 169.032642,109.231817 169.239803,110.868391 C169.446964,112.504964 169.933786,113.706481 170.700282,114.472978 C171.528927,115.301623 172.678655,115.622718 174.149499,115.436273 C174.978144,115.311976 176.055367,114.959807 177.381198,114.379756 L177.381198,115.125533 L177.16368,119.009786 C177.088403,120.547591 177.057785,121.853717 177.071826,122.928174 L0,300 L0,200 L200,0 L300,0 L202.739874,97.2601257 Z M77.4781969,212.231872 L78.627936,213.381611 L99.385387,192.62416 C102.927844,189.081703 105.424099,185.611804 106.874228,182.21436 C109.608756,175.75093 108.490102,170.033366 103.518233,165.061496 C100.555827,162.099091 97.2154026,160.830247 93.4968586,161.254928 C89.7783146,161.679608 86.106437,163.000241 82.4811155,165.216866 C84.262702,162.275177 85.2984926,159.768564 85.5885183,157.696952 C86.1271375,154.050914 84.8945467,150.726026 81.890709,147.722188 C77.8924973,143.723977 73.5784295,142.403344 68.9483761,143.76025 C64.3183227,145.117156 59.4552859,148.343644 54.3591197,153.43981 L36.5226274,171.276302 L37.7034405,172.457115 C40.3965364,170.012613 42.4577597,168.748948 43.8871721,168.666084 C45.3165846,168.583219 47.2017235,169.712231 49.5426453,172.053153 L77.8510853,200.361593 C80.2334394,202.743947 81.372809,204.639444 81.2692284,206.04814 C81.1656478,207.456836 79.9019833,209.518059 77.4781969,212.231872 Z M120.422504,169.846897 L121.292577,170.71697 L136.332407,155.67714 L135.462334,154.807067 C133.370006,156.60937 131.748993,157.557118 130.599249,157.650341 C129.449504,157.743563 127.973502,156.889036 126.1712,155.086733 L88.9134394,117.828973 C88.4991169,117.414651 88.2142745,117.160882 88.0589036,117.067659 C87.9035327,116.974437 87.7533431,117.000332 87.6083302,117.145344 C84.9152343,122.324375 82.5432738,126.685053 80.4923777,130.22751 L81.5178206,131.252953 C81.9114269,130.610754 82.2480589,130.087679 82.5277265,129.683715 C82.8073942,129.279751 83.0922366,128.932761 83.3822623,128.642735 C84.6459458,127.379051 85.9199682,126.975093 87.2043678,127.430848 C87.9501482,127.720874 89.0066546,128.549506 90.3739187,129.91677 L120.733245,160.276096 C122.452683,161.995534 123.265778,163.492252 123.172556,164.766293 C123.079333,166.040335 122.162659,167.733852 120.422504,169.846897 Z M118.340544,123.919483 C118.568422,129.388539 120.743582,134.184249 124.86609,138.306758 C129.278624,142.719292 134.322925,145.008389 139.999142,145.174118 C145.67536,145.339847 150.502144,143.433992 154.479639,139.456497 C158.622864,135.313272 160.476929,130.413983 160.041891,124.758481 C159.606852,119.10298 157.328113,114.214048 153.205604,110.09154 C148.730922,105.616857 143.800559,103.37955 138.414367,103.37955 C133.028175,103.37955 128.284254,105.430415 124.182462,109.532207 C120.059953,113.654716 118.112667,118.450426 118.340544,123.919483 Z" id="nav-stripe-2" fill-opacity="0.8" fill="#4BC4B8"></path>
            <polygon id="nav-stripe-1" fill-opacity="0.8" fill="#A3D3A1" points="0 100 100 0 200 0 0 200"></polygon>
        </g>
    </g>
</svg>
