
<svg width="860px" height="1797px" viewBox="5071 -1997 860 1797" version="1.1" xmlns="http://www.w3.org/2000/svg" xmlns:xlink="http://www.w3.org/1999/xlink">
    <!-- Generator: Sketch 42 (36781) - http://www.bohemiancoding.com/sketch -->
    <desc>Created with Sketch.</desc>
    <defs>
        <path d="M223,0.953112342 C223,0.953112342 774.432354,767.661193 323.494419,1534.36927 C-289.122735,1534.36927 810.730367,1534.36927 183,1534.36927 C-248.847096,767.661193 223,0.953112342 223,0.953112342 Z" id="path-1"></path>
        <rect id="path-3" x="123" y="1440" width="280" height="80"></rect>
        <mask id="mask-4" maskContentUnits="userSpaceOnUse" maskUnits="objectBoundingBox" x="0" y="0" width="280" height="80" fill="white">
            <use xlink:href="#path-3"></use>
        </mask>
        <rect id="path-5" x="123" y="1520" width="260" height="20"></rect>
        <mask id="mask-6" maskContentUnits="userSpaceOnUse" maskUnits="objectBoundingBox" x="0" y="0" width="260" height="20" fill="white">
            <use xlink:href="#path-5"></use>
        </mask>
        <rect id="path-7" x="-84" y="-160" width="647" height="460"></rect>
        <mask id="mask-8" maskContentUnits="userSpaceOnUse" maskUnits="objectBoundingBox" x="0" y="0" width="647" height="460" fill="white">
            <use xlink:href="#path-7"></use>
        </mask>
        <path d="M201,1115 C244.519595,1103.35533 281,1341 281,1341 C281,1341 186.496926,1363.4165 161,1441 C135.503074,1518.5835 121,1791 121,1791 L94,1791 C94,1791 11.4418364,1482.82694 1,1441 C-14.1855397,1256.91296 161,1131.6323 201,1115 Z" id="path-9"></path>
        <mask id="mask-10" maskContentUnits="userSpaceOnUse" maskUnits="objectBoundingBox" x="0" y="0" width="280.930281" height="676.414381" fill="white">
            <use xlink:href="#path-9"></use>
        </mask>
        <path d="M779.930281,1120.41438 C823.449876,1108.76971 859.930281,1346.41438 859.930281,1346.41438 C859.930281,1346.41438 765.427208,1368.83088 739.930281,1446.41438 C714.433355,1523.99789 699.930281,1796.41438 699.930281,1796.41438 L672.930281,1796.41438 C672.930281,1796.41438 590.372118,1488.24132 579.930281,1446.41438 C564.744741,1262.32734 739.930281,1137.04669 779.930281,1120.41438 Z" id="path-11"></path>
        <mask id="mask-12" maskContentUnits="userSpaceOnUse" maskUnits="objectBoundingBox" x="0" y="0" width="280.930281" height="676.414381" fill="white">
            <use xlink:href="#path-11"></use>
        </mask>
    </defs>
    <g id="Rocket" stroke="none" fill="none" transform="translate(5071.000000, -1997.000000)" fill-rule="evenodd">
        <g id="Body" style="mix-blend-mode: darken;" stroke-width="1" transform="translate(177.000000, 0.000000)">
            <mask id="mask-2" fill="white">
                <use xlink:href="#path-1"></use>
            </mask>
            <use id="Body-Mask" fill="#D8D8D8" xlink:href="#path-1"></use>
            <g id="Bottom2" mask="url(#mask-2)">
                <use fill-opacity="0.8" fill="#302F2F" fill-rule="evenodd" style="mix-blend-mode: darken;" xlink:href="#path-3"></use>
                <use stroke="#979797" mask="url(#mask-4)" stroke-width="2" xlink:href="#path-3"></use>
            </g>
            <g id="Bottom1" mask="url(#mask-2)" stroke-width="2" stroke="#979797" fill="#000000">
                <use mask="url(#mask-6)" xlink:href="#path-5"></use>
            </g>
            <g id="Nose" style="mix-blend-mode: darken;" mask="url(#mask-2)" stroke-width="2" stroke="#979797" fill="#C12E2E">
                <use mask="url(#mask-8)" xlink:href="#path-7"></use>
            </g>
        </g>
        <use id="Fin-2" stroke="#979797" mask="url(#mask-10)" stroke-width="2" fill="#D15A5A" xlink:href="#path-9"></use>
        <use id="Fin-1" stroke="#979797" mask="url(#mask-12)" stroke-width="2" fill="#D15A5A" transform="translate(719.465141, 1458.207191) scale(-1, 1) translate(-719.465141, -1458.207191) " xlink:href="#path-11"></use>
        <ellipse id="Window" stroke="#7A7A7A" stroke-width="15" fill-opacity="0.677423007" fill="#F4F4F4" cx="425.517275" cy="720" rx="125.517275" ry="120"></ellipse>
    </g>
</svg>